<svg xmlns="http://www.w3.org/2000/svg" viewBox="0 0 24 24" fill="#ffffff">
  <path d="M19.3 5.6A16.5 16.5 0 0 0 15.2 4.3l-.2.4a12.4 12.4 0 0 1 3.6 1.8 11.6 11.6 0 0 0-9.9 0A12.4 12.4 0 0 1 12.3 4.7l-.3-.4A16.5 16.5 0 0 0 7.9 5.6 17.2 17.2 0 0 0 4.8 17a16.6 16.6 0 0 0 5 2.5l.7-1.1a10.8 10.8 0 0 1-1.7-.8l.4-.3a11.8 11.8 0 0 0 10 0l.4.3a10.8 10.8 0 0 1-1.7.8l.7 1.1a16.6 16.6 0 0 0 5-2.5 17.2 17.2 0 0 0-3.1-11.4ZM9.7 14.5a1.6 1.6 0 1 1 1.5-1.6 1.6 1.6 0 0 1-1.5 1.6Zm5.1 0a1.6 1.6 0 1 1 1.5-1.6 1.6 1.6 0 0 1-1.5 1.6Z"/>
</svg>
